<?xml version="1.0" encoding="UTF-8"?>
<svg version="1.1" xmlns="http://www.w3.org/2000/svg" width="140" height="136">
<path d="M0 0 C3.11444855 1.95705213 5.2064601 4.27980254 7.3125 7.3125 C7.993125 6.384375 8.67375 5.45625 9.375 4.5 C12.29463495 1.05841914 14.89513594 -0.45643133 19.3125 -1.6875 C22.699009 -1.62564595 25.96573999 -1.17313126 29.3125 -0.6875 C30.3025 -0.6875 31.2925 -0.6875 32.3125 -0.6875 C33.65248047 -0.67009766 33.65248047 -0.67009766 35.01953125 -0.65234375 C41.42099725 -0.56558054 41.42099725 -0.56558054 47.75 -1.375 C50.3125 -1.6875 50.3125 -1.6875 52.875 -0.125 C53.679375 0.349375 54.48375 0.82375 55.3125 1.3125 C57.77479997 0.59504644 57.77479997 0.59504644 60.3125 -0.6875 C64.69885502 -1.80402673 66.54058105 -2.08074173 70.625 0 C73.81659985 2.74626033 75.13927746 4.55990572 75.55541992 8.77026367 C75.55131104 9.66463135 75.54720215 10.55899902 75.54296875 11.48046875 C75.54103516 12.45564453 75.53910156 13.43082031 75.53710938 14.43554688 C75.52486328 15.44681641 75.51261719 16.45808594 75.5 17.5 C75.4990332 19.03430664 75.4990332 19.03430664 75.49804688 20.59960938 C75.45282251 28.17217749 75.45282251 28.17217749 74.3125 29.3125 C72.81511876 29.4104057 71.31307108 29.44224864 69.8125 29.4375 C68.9978125 29.44007812 68.183125 29.44265625 67.34375 29.4453125 C65.3125 29.3125 65.3125 29.3125 64.3125 28.3125 C64.15629445 26.89922053 64.06193827 25.4789541 63.99609375 24.05859375 C63.95419922 23.20458984 63.91230469 22.35058594 63.86914062 21.47070312 C63.82982422 20.57287109 63.79050781 19.67503906 63.75 18.75 C63.70681641 17.84830078 63.66363281 16.94660156 63.61914062 16.01757812 C63.51271858 13.78271515 63.41070012 11.54773692 63.3125 9.3125 C62.3225 9.3125 61.3325 9.3125 60.3125 9.3125 C60.27491577 10.16799438 60.27491577 10.16799438 60.23657227 11.04077148 C60.12093451 13.61076157 59.99806376 16.18035527 59.875 18.75 C59.83568359 19.64783203 59.79636719 20.54566406 59.75585938 21.47070312 C59.71396484 22.32470703 59.67207031 23.17871094 59.62890625 24.05859375 C59.59224854 24.84935303 59.55559082 25.6401123 59.51782227 26.45483398 C59.3125 28.3125 59.3125 28.3125 58.3125 29.3125 C56.81511876 29.4104057 55.31307108 29.44224864 53.8125 29.4375 C52.9978125 29.44007812 52.183125 29.44265625 51.34375 29.4453125 C49.3125 29.3125 49.3125 29.3125 48.3125 28.3125 C48.15594973 26.82611008 48.06183057 25.33300873 47.99609375 23.83984375 C47.95419922 22.94072266 47.91230469 22.04160156 47.86914062 21.11523438 C47.82982422 20.16970703 47.79050781 19.22417969 47.75 18.25 C47.70681641 17.30060547 47.66363281 16.35121094 47.61914062 15.37304688 C47.51270724 13.01968647 47.41068992 10.66621646 47.3125 8.3125 C45.9925 8.3125 44.6725 8.3125 43.3125 8.3125 C43.29791748 8.90788574 43.28333496 9.50327148 43.26831055 10.11669922 C43.19395656 12.80763051 43.09725813 15.49730333 43 18.1875 C42.97744141 19.12464844 42.95488281 20.06179687 42.93164062 21.02734375 C42.89619141 21.92324219 42.86074219 22.81914063 42.82421875 23.7421875 C42.79803467 24.56960449 42.77185059 25.39702148 42.74487305 26.24951172 C42.3125 28.3125 42.3125 28.3125 39.3125 30.3125 C43.05130901 32.80503934 45.93469678 32.53794573 50.25 32.4375 C51.32411133 32.42396484 51.32411133 32.42396484 52.41992188 32.41015625 C54.38421897 32.38466954 56.34837641 32.34898527 58.3125 32.3125 C63.64583333 32.3125 68.97916667 32.3125 74.3125 32.3125 C75.44833456 36.02977674 74.97920026 37.78301709 73.3125 41.3125 C66.64295805 42.18719403 60.98204195 42.18719403 54.3125 41.3125 C53.9825 42.3025 53.6525 43.2925 53.3125 44.3125 C51.3325 43.8175 51.3325 43.8175 49.3125 43.3125 C49.3125 42.6525 49.3125 41.9925 49.3125 41.3125 C48.75264404 41.33344727 48.19278809 41.35439453 47.6159668 41.37597656 C45.07749414 41.45916202 42.539308 41.51116381 40 41.5625 C39.11892578 41.59601563 38.23785156 41.62953125 37.33007812 41.6640625 C30.84291711 41.76272655 30.84291711 41.76272655 28.16796875 39.4921875 C27.3125 37.3125 27.3125 37.3125 27.9375 34.1875 C29.3125 31.3125 29.3125 31.3125 32.3125 29.3125 C29.33297777 29.26956749 29.33297777 29.26956749 26.45703125 29.55859375 C20.38580272 29.90735131 16.2869136 30.07886437 11.5625 25.9375 C9.75408292 24.09109096 8.46658701 22.62067403 7.3125 20.3125 C7.168125 21.611875 7.02375 22.91125 6.875 24.25 C6.4375 28.1875 6.4375 28.1875 5.3125 29.3125 C2.09362932 29.64731341 -1.14096348 29.63757102 -4.375 29.6875 C-5.27412109 29.72488281 -6.17324219 29.76226562 -7.09960938 29.80078125 C-11.50491451 29.85895843 -14.72398485 29.80481308 -18.29296875 27.0390625 C-21.47516341 23.41561736 -21.47516341 23.41561736 -21.3125 20.3125 C-20.96849669 16.25326092 -19.76610991 14.07535505 -16.6875 11.3125 C-14.38511103 10.08981806 -12.14838534 9.21166964 -9.6875 8.3125 C-11.9975 8.6425 -14.3075 8.9725 -16.6875 9.3125 C-18.45212683 6.22440305 -18.6875 5.07937864 -18.6875 1.3125 C-12.21517771 -1.41268833 -6.63968891 -3.47524143 0 0 Z M18.3125 10.3125 C17.94216778 13.70721203 17.70328298 16.20157484 19.375 19.25 C22.36742356 20.89100647 24.9671508 20.55145351 28.3125 20.3125 C29.3025 19.9825 30.2925 19.6525 31.3125 19.3125 C31.3125 16.0125 31.3125 12.7125 31.3125 9.3125 C29.724375 9.10625 28.13625 8.9 26.5 8.6875 C25.60667969 8.57148437 24.71335937 8.45546875 23.79296875 8.3359375 C21.05559609 8.07749257 21.05559609 8.07749257 18.3125 10.3125 Z M-9.6875 17.3125 C-9.3575 18.6325 -9.0275 19.9525 -8.6875 21.3125 C-7.3675 20.9825 -6.0475 20.6525 -4.6875 20.3125 C-4.6875 18.9925 -4.6875 17.6725 -4.6875 16.3125 C-7.6129644 16.0888932 -7.6129644 16.0888932 -9.6875 17.3125 Z M32.3125 34.3125 C32.3125 35.3025 32.3125 36.2925 32.3125 37.3125 C33.3025 37.3125 34.2925 37.3125 35.3125 37.3125 C35.3125 36.3225 35.3125 35.3325 35.3125 34.3125 C34.3225 34.3125 33.3325 34.3125 32.3125 34.3125 Z " fill="#F7F7F7" transform="translate(60.6875,47.6875)"/>
<path d="M0 0 C3.11444855 1.95705213 5.2064601 4.27980254 7.3125 7.3125 C7.993125 6.384375 8.67375 5.45625 9.375 4.5 C12.29463495 1.05841914 14.89513594 -0.45643133 19.3125 -1.6875 C22.73509065 -1.76458537 26.01367371 -1.64036025 29.3125 -0.6875 C29.9725 0.3025 30.6325 1.2925 31.3125 2.3125 C30.6525 2.3125 29.9925 2.3125 29.3125 2.3125 C29.3125 3.9625 29.3125 5.6125 29.3125 7.3125 C28.77625 7.43625 28.24 7.56 27.6875 7.6875 C24.8486714 8.43456016 22.09026798 9.36553364 19.3125 10.3125 C19.3125 13.2825 19.3125 16.2525 19.3125 19.3125 C23.30360319 21.3080516 25.01236566 21.50796065 29.3125 21.3125 C29.3125 23.9525 29.3125 26.5925 29.3125 29.3125 C18.18597442 30.38105352 18.18597442 30.38105352 13.703125 27.82421875 C11.09314376 25.52381558 8.8767639 23.4410278 7.3125 20.3125 C7.168125 21.611875 7.02375 22.91125 6.875 24.25 C6.4375 28.1875 6.4375 28.1875 5.3125 29.3125 C2.09362932 29.64731341 -1.14096348 29.63757102 -4.375 29.6875 C-5.27412109 29.72488281 -6.17324219 29.76226562 -7.09960938 29.80078125 C-11.50491451 29.85895843 -14.72398485 29.80481308 -18.29296875 27.0390625 C-21.47516341 23.41561736 -21.47516341 23.41561736 -21.3125 20.3125 C-20.96849669 16.25326092 -19.76610991 14.07535505 -16.6875 11.3125 C-14.38511103 10.08981806 -12.14838534 9.21166964 -9.6875 8.3125 C-11.9975 8.6425 -14.3075 8.9725 -16.6875 9.3125 C-18.45212683 6.22440305 -18.6875 5.07937864 -18.6875 1.3125 C-12.21517771 -1.41268833 -6.63968891 -3.47524143 0 0 Z M-9.6875 17.3125 C-9.3575 18.6325 -9.0275 19.9525 -8.6875 21.3125 C-7.3675 20.9825 -6.0475 20.6525 -4.6875 20.3125 C-4.6875 18.9925 -4.6875 17.6725 -4.6875 16.3125 C-7.6129644 16.0888932 -7.6129644 16.0888932 -9.6875 17.3125 Z " fill="#FCFCFC" transform="translate(60.6875,47.6875)"/>
<path d="M0 0 C2.31 1.98 4.62 3.96 7 6 C5.88148178 10.47407289 4.79457756 11.54958335 1.5625 14.6953125 C0.66789062 15.57574219 -0.22671875 16.45617187 -1.1484375 17.36328125 C-2.08945312 18.27464844 -3.03046875 19.18601562 -4 20.125 C-5.85622565 21.93799848 -7.71049677 23.75300097 -9.5625 25.5703125 C-10.38878906 26.37227051 -11.21507813 27.17422852 -12.06640625 28.00048828 C-14.0517482 29.85325816 -14.0517482 29.85325816 -15 32 C-14.34 32 -13.68 32 -13 32 C-13 32.66 -13 33.32 -13 34 C-12.13822144 34.37825928 -12.13822144 34.37825928 -11.2590332 34.76416016 C-6.92604231 37.13459136 -3.66885045 40.91947985 -0.1875 44.375 C1.01422852 45.52742188 1.01422852 45.52742188 2.24023438 46.703125 C2.99240234 47.44820312 3.74457031 48.19328125 4.51953125 48.9609375 C5.21151611 49.63946777 5.90350098 50.31799805 6.61645508 51.01708984 C8 53 8 53 7.90893555 55.08056641 C6.36750424 58.33566524 3.83093602 59.83162348 1 62 C0.5467334 61.54149658 0.0934668 61.08299316 -0.37353516 60.6105957 C-2.45464781 58.50852869 -4.53978461 56.41049692 -6.625 54.3125 C-7.69427734 53.2306543 -7.69427734 53.2306543 -8.78515625 52.12695312 C-11.92921882 48.96846825 -15.04178079 45.8922269 -18.5234375 43.10546875 C-19.34070312 42.41066406 -20.15796875 41.71585938 -21 41 C-21 40.34 -21 39.68 -21 39 C-21.556875 38.79375 -22.11375 38.5875 -22.6875 38.375 C-25.92501302 36.44999226 -27.68231141 33.96149098 -30 31 C-24.33425951 24.07189276 -17.96966361 17.85795858 -11.625 11.5625 C-10.49586045 10.43838533 -9.36695222 9.31403826 -8.23828125 8.18945312 C-5.49484812 5.45694765 -2.74830015 2.72760991 0 0 Z " fill="#FEFEFE" transform="translate(31,38)"/>
<path d="M0 0 C4.11105328 3.45998963 8.09319445 6.96974499 11.8828125 10.78515625 C12.74003906 11.64560547 13.59726563 12.50605469 14.48046875 13.39257812 C15.35316406 14.27365234 16.22585937 15.15472656 17.125 16.0625 C18.00542969 16.94744141 18.88585937 17.83238281 19.79296875 18.74414062 C21.47140282 20.43143521 23.14887288 22.11968952 24.82519531 23.80908203 C27.21068177 26.21224272 29.60317951 28.60815217 32 31 C30.02 33.31 28.04 35.62 26 38 C24.68 37.67 23.36 37.34 22 37 C22 36.34 22 35.68 22 35 C21.01 34.67 20.02 34.34 19 34 C16.8125 32.0625 16.8125 32.0625 15 30 C15 29.34 15 28.68 15 28 C14.4225 27.773125 13.845 27.54625 13.25 27.3125 C10.41565264 25.6591307 9.03237811 23.57036056 7 21 C5.06055298 19.24207758 3.05042917 17.63102321 1 16 C-4.43733055 20.52991796 -9.46458931 25.34294216 -14.4375 30.375 C-15.16904297 31.11105469 -15.90058594 31.84710938 -16.65429688 32.60546875 C-18.43852723 34.40136074 -20.22036124 36.19955985 -22 38 C-25.32759923 36.44805246 -27.48580485 34.69378051 -30 32 C-28.71977125 29.19030533 -27.39285871 27.1460762 -25.20263672 24.97558594 C-24.64220673 24.41530701 -24.08177673 23.85502808 -23.50436401 23.277771 C-22.90222076 22.68595032 -22.30007751 22.09412964 -21.6796875 21.484375 C-21.06102814 20.86854553 -20.44236877 20.25271606 -19.80496216 19.6182251 C-17.83296186 17.65739664 -15.85411263 15.70364699 -13.875 13.75 C-12.53469836 12.41973201 -11.19484917 11.089008 -9.85546875 9.7578125 C-6.57553411 6.4998985 -3.28944058 3.24831467 0 0 Z " fill="#00A4E7" transform="translate(66,3)"/>
<path d="M0 0 C2.5 1.375 2.5 1.375 5 3 C5 3.66 5 4.32 5 5 C5.5887793 5.26280762 6.17755859 5.52561523 6.78417969 5.79638672 C9.10339241 7.05616181 10.60949403 8.38004021 12.453125 10.2578125 C13.071875 10.88300781 13.690625 11.50820312 14.328125 12.15234375 C14.96234375 12.80332031 15.5965625 13.45429687 16.25 14.125 C16.8996875 14.78371094 17.549375 15.44242188 18.21875 16.12109375 C19.81711727 17.74296643 21.41061897 19.3693281 23 21 C26.56764285 19.48623919 28.83706287 17.39486871 31.546875 14.6484375 C32.39121094 13.79765625 33.23554687 12.946875 34.10546875 12.0703125 C35.41451172 10.73613281 35.41451172 10.73613281 36.75 9.375 C37.63816406 8.4778125 38.52632812 7.580625 39.44140625 6.65625 C41.63216969 4.44192996 43.81812763 2.22307565 46 0 C49.32759923 1.55194754 51.48580485 3.30621949 54 6 C52.34763349 10.29067546 49.1094793 13.1429553 45.8984375 16.296875 C45.30197418 16.89050842 44.70551086 17.48414185 44.0909729 18.09576416 C42.1903019 19.98526627 40.28278526 21.86768392 38.375 23.75 C37.08287532 25.03209065 35.79120324 26.31463761 34.5 27.59765625 C31.33855521 30.73708432 28.1709539 33.87017801 25 37 C20.70932454 35.34763349 17.8570447 32.1094793 14.703125 28.8984375 C14.10949158 28.30197418 13.51585815 27.70551086 12.90423584 27.0909729 C11.01473373 25.1903019 9.13231608 23.28278526 7.25 21.375 C5.96790935 20.08287532 4.68536239 18.79120324 3.40234375 17.5 C0.26291568 14.33855521 -2.87017801 11.1709539 -6 8 C-4.44805246 4.67240077 -2.69378051 2.51419515 0 0 Z " fill="#01A5E6" transform="translate(43,97)"/>
<path d="M0 0 C2.31 0 4.62 0 7 0 C7 0.66 7 1.32 7 2 C5.02 2 3.04 2 1 2 C1 10.58 1 19.16 1 28 C3.31 28 5.62 28 8 28 C8 22.39 8 16.78 8 11 C8.66 11.33 9.32 11.66 10 12 C10.08071788 14.79224073 10.14035408 17.58216566 10.1875 20.375 C10.21263672 21.1690625 10.23777344 21.963125 10.26367188 22.78125 C10.29004405 24.85586148 10.15486462 26.93100865 10 29 C9.01 29.66 8.02 30.32 7 31 C10.73880901 33.49253934 13.62219678 33.22544573 17.9375 33.125 C19.01161133 33.11146484 19.01161133 33.11146484 20.10742188 33.09765625 C22.07171897 33.07216954 24.03587641 33.03648527 26 33 C31.33333333 33 36.66666667 33 42 33 C43.13583456 36.71727674 42.66670026 38.47051709 41 42 C34.33045805 42.87469403 28.66954195 42.87469403 22 42 C21.67 42.99 21.34 43.98 21 45 C19.68 44.67 18.36 44.34 17 44 C17 43.34 17 42.68 17 42 C16.44014404 42.02094727 15.88028809 42.04189453 15.3034668 42.06347656 C12.76499414 42.14666202 10.226808 42.19866381 7.6875 42.25 C6.80642578 42.28351563 5.92535156 42.31703125 5.01757812 42.3515625 C-1.46958289 42.45022655 -1.46958289 42.45022655 -4.14453125 40.1796875 C-5 38 -5 38 -4.375 34.875 C-3 32 -3 32 0 30 C-0.99 29.67 -1.98 29.34 -3 29 C-3 26.69 -3 24.38 -3 22 C-5.31 22.33 -7.62 22.66 -10 23 C-9.67 22.34 -9.34 21.68 -9 21 C-6.35139573 20.40644386 -3.70802678 20.25790731 -1 20 C-1.33 17.03 -1.66 14.06 -2 11 C-4.31 10.01 -6.62 9.02 -9 8 C-5.25 6.875 -5.25 6.875 -3 8 C-3 6.35 -3 4.7 -3 3 C-2.34 3 -1.68 3 -1 3 C-0.67 2.01 -0.34 1.02 0 0 Z M0 35 C0 35.99 0 36.98 0 38 C0.99 38 1.98 38 3 38 C3 37.01 3 36.02 3 35 C2.01 35 1.02 35 0 35 Z " fill="#EEEEEE" transform="translate(93,47)"/>
<path d="M0 0 C1.33783393 0.31478446 2.67203709 0.64587656 4 1 C7.01614295 1.82231525 7.01614295 1.82231525 10 2 C11.62514468 0.54166642 11.62514468 0.54166642 13 -1 C15.1875 -0.6875 15.1875 -0.6875 17 0 C17 0.66 17 1.32 17 2 C18.010625 1.835 19.02125 1.67 20.0625 1.5 C23.77205172 1.02894581 27.26681946 0.92956263 31 1 C32.32 1 33.64 1 35 1 C35.66 1.33 36.32 1.66 37 2 C37 2.66 37 3.32 37 4 C36.34 4 35.68 4 35 4 C35.66 5.65 36.32 7.3 37 9 C32.12283698 10.27096493 27.32429344 10.12655874 22.32421875 10.09765625 C21.3990596 10.0962413 20.47390045 10.09482635 19.52070618 10.09336853 C16.57627073 10.08778715 13.63191233 10.07523805 10.6875 10.0625 C8.68685006 10.05748259 6.68619892 10.05292011 4.68554688 10.04882812 C-0.20966494 10.03782381 -5.10481942 10.02057198 -10 10 C-10 8.68 -10 7.36 -10 6 C-10.30404678 4.32774271 -10.63128912 2.65919896 -11 1 C-7.09536856 -1.60308763 -4.37318849 -0.81050948 0 0 Z " fill="#FAFAFA" transform="translate(51,79)"/>
<path d="M0 0 C1.40045153 0.09139789 2.79681115 0.24881357 4.1875 0.4375 C7.82071056 0.89020036 11.33272466 1.0940327 15 1 C16.0326802 3.78823655 16.04509293 4.8677274 15.0625 7.75 C14.5365625 8.86375 14.5365625 8.86375 14 10 C7.33045805 10.87469403 1.66954195 10.87469403 -5 10 C-5.33 10.99 -5.66 11.98 -6 13 C-7.32 12.67 -8.64 12.34 -10 12 C-10.66 9.69 -11.32 7.38 -12 5 C-12.99 5.495 -12.99 5.495 -14 6 C-14 4.35 -14 2.7 -14 1 C-13.07316406 1.01160156 -12.14632812 1.02320312 -11.19140625 1.03515625 C-9.39509766 1.04869141 -9.39509766 1.04869141 -7.5625 1.0625 C-5.77005859 1.07990234 -5.77005859 1.07990234 -3.94140625 1.09765625 C-1.11126659 1.33901792 -1.11126659 1.33901792 0 0 Z " fill="#FCFCFC" transform="translate(120,79)"/>
<path d="M0 0 C0.87011719 0.10828125 0.87011719 0.10828125 1.7578125 0.21875 C6.20087574 0.7466387 10.51631578 1.11496626 15 1 C16.0326802 3.78823655 16.04509293 4.8677274 15.0625 7.75 C14.711875 8.4925 14.36125 9.235 14 10 C6.73846154 11.47692308 6.73846154 11.47692308 3 9.0625 C2.34 8.381875 1.68 7.70125 1 7 C1.33 6.01 1.66 5.02 2 4 C1.67 3.67 1.34 3.34 1 3 C0.34 3 -0.32 3 -1 3 C-0.67 2.01 -0.34 1.02 0 0 Z " fill="#EEEEEE" transform="translate(120,79)"/>
<path d="M0 0 C2.31 0 4.62 0 7 0 C7 0.66 7 1.32 7 2 C5.02 2 3.04 2 1 2 C1 9.92 1 17.84 1 26 C0.34 26 -0.32 26 -1 26 C-1.33 21.05 -1.66 16.1 -2 11 C-4.31 10.01 -6.62 9.02 -9 8 C-5.25 6.875 -5.25 6.875 -3 8 C-3 6.35 -3 4.7 -3 3 C-2.34 3 -1.68 3 -1 3 C-0.67 2.01 -0.34 1.02 0 0 Z " fill="#C3C3C4" transform="translate(93,47)"/>
<path d="M0 0 C2.5 1.375 2.5 1.375 5 3 C5 3.66 5 4.32 5 5 C5.639375 5.28875 6.27875 5.5775 6.9375 5.875 C9 7 9 7 10 9 C5.62140745 8.49477778 3.18348776 5.82172778 0 3 C-0.99 3.99 -1.98 4.98 -3 6 C-1.38989473 10.07376031 1.53822271 12.76507069 4.625 15.75 C5.140625 16.25660156 5.65625 16.76320313 6.1875 17.28515625 C7.45383339 18.52803902 8.7263144 19.76465276 10 21 C9.67 21.66 9.34 22.32 9 23 C4.05 18.05 -0.9 13.1 -6 8 C-4.21844267 4.43688534 -2.83236991 2.64354525 0 0 Z " fill="#21AFEA" transform="translate(43,97)"/>
<path d="M0 0 C2.64 0.66 5.28 1.32 8 2 C7.01 2.33 6.02 2.66 5 3 C5 3.99 5 4.98 5 6 C6.65 6 8.3 6 10 6 C10 6.66 10 7.32 10 8 C10.66 8 11.32 8 12 8 C12 8.66 12 9.32 12 10 C9.3125 10.75 9.3125 10.75 6 11 C3.125 9.0625 3.125 9.0625 1 7 C1.33 6.01 1.66 5.02 2 4 C1.67 3.67 1.34 3.34 1 3 C0.34 3 -0.32 3 -1 3 C-0.67 2.01 -0.34 1.02 0 0 Z " fill="#DDDEDE" transform="translate(120,79)"/>
<path d="M0 0 C0.66 0.33 1.32 0.66 2 1 C2 1.66 2 2.32 2 3 C2.5775 3.23976563 3.155 3.47953125 3.75 3.7265625 C6.44439132 5.25151314 7.99741362 7.02039648 10 9.375 C12.56676952 12.37290659 15.17720612 15.24021491 18 18 C17.34 18.33 16.68 18.66 16 19 C15.01 18.34 14.02 17.68 13 17 C13 16.34 13 15.68 13 15 C12.4225 14.773125 11.845 14.54625 11.25 14.3125 C8.41565264 12.6591307 7.03237811 10.57036056 5 8 C3.06055298 6.24207758 1.05042917 4.63102321 -1 3 C-0.67 2.01 -0.34 1.02 0 0 Z " fill="#00B2F3" transform="translate(68,16)"/>
<path d="M0 0 C-1.58667578 3.90285767 -4.13350481 6.33520982 -7.125 9.25 C-8.03507812 10.14203125 -8.94515625 11.0340625 -9.8828125 11.953125 C-10.58148438 12.62859375 -11.28015625 13.3040625 -12 14 C-10.68 15.65 -9.36 17.3 -8 19 C-8.33 19.66 -8.66 20.32 -9 21 C-10.98 19.02 -12.96 17.04 -15 15 C-13.387672 10.96918 -10.53765404 8.24055863 -7.5 5.25 C-7.00113281 4.74339844 -6.50226562 4.23679687 -5.98828125 3.71484375 C-2.25341139 0 -2.25341139 0 0 0 Z " fill="#06ABF2" transform="translate(51,20)"/>
<path d="M0 0 C1.65 0 3.3 0 5 0 C5 0.66 5 1.32 5 2 C4.67 2.33 4.34 2.66 4 3 C4.33 3 4.66 3 5 3 C5.33 4.98 5.66 6.96 6 9 C3.125 9.125 3.125 9.125 0 9 C-0.66 8.34 -1.32 7.68 -2 7 C-1.34 4.69 -0.68 2.38 0 0 Z " fill="#F1F1F1" transform="translate(75,80)"/>
<path d="M0 0 C0.66 0 1.32 0 2 0 C2.02888514 3.14581423 2.04675923 6.29159469 2.0625 9.4375 C2.07087891 10.33533203 2.07925781 11.23316406 2.08789062 12.15820312 C2.09111328 13.01220703 2.09433594 13.86621094 2.09765625 14.74609375 C2.10289307 15.53685303 2.10812988 16.3276123 2.11352539 17.14233398 C2 19 2 19 1 20 C-0.99958364 20.04080783 -3.00045254 20.04254356 -5 20 C-5 19.34 -5 18.68 -5 18 C-3.35 18 -1.7 18 0 18 C0 12.06 0 6.12 0 0 Z " fill="#BFBFBF" transform="translate(118,57)"/>
<path d="M0 0 C0.91058531 3.07322544 1.08886184 5.80097361 1 9 C-0.98 9.33 -2.96 9.66 -5 10 C-5 9.34 -5 8.68 -5 8 C-5.66 8 -6.32 8 -7 8 C-7 7.34 -7 6.68 -7 6 C-6.34 6 -5.68 6 -5 6 C-4.87625 5.195625 -4.7525 4.39125 -4.625 3.5625 C-4.41875 2.716875 -4.2125 1.87125 -4 1 C-2 0 -2 0 0 0 Z " fill="#DADBDB" transform="translate(101,79)"/>
<path d="M0 0 C1.65 0.33 3.3 0.66 5 1 C5 3.64 5 6.28 5 9 C1.62537285 8.45276317 -0.08235 7.9451 -3 6 C-2.67 5.01 -2.34 4.02 -2 3 C-1.67 3.66 -1.34 4.32 -1 5 C-0.67 3.35 -0.34 1.7 0 0 Z " fill="#F0F0F0" transform="translate(53,80)"/>
<path d="M0 0 C0.66 0.33 1.32 0.66 2 1 C0.92075721 4.23772838 0.24856932 4.86999864 -2.3125 6.9375 C-5.02171682 9.1728826 -7.56215658 11.46464284 -10 14 C-10.99 13.67 -11.98 13.34 -13 13 C-8.71 8.71 -4.42 4.42 0 0 Z " fill="#03ACF1" transform="translate(66,3)"/>
<path d="M0 0 C0.66 0 1.32 0 2 0 C3.4606285 2.64738916 4 3.89448334 4 7 C3.34 7 2.68 7 2 7 C2.02320312 7.62648438 2.04640625 8.25296875 2.0703125 8.8984375 C2.08835937 9.71570313 2.10640625 10.53296875 2.125 11.375 C2.14820312 12.18710938 2.17140625 12.99921875 2.1953125 13.8359375 C2 16 2 16 0 18 C0 12.06 0 6.12 0 0 Z " fill="#CECECE" transform="translate(65,56)"/>
<path d="M0 0 C1.98 0.99 1.98 0.99 4 2 C3.34 3.32 2.68 4.64 2 6 C2.99 5.67 3.98 5.34 5 5 C5.66 6.32 6.32 7.64 7 9 C5.02 9 3.04 9 1 9 C-0.06546953 5.8035914 -0.07427838 3.34252724 0 0 Z " fill="#FDFDFD" transform="translate(57,80)"/>
<path d="M0 0 C1.32 0.33 2.64 0.66 4 1 C4.66 3.31 5.32 5.62 6 8 C4.35 8 2.7 8 1 8 C0 1.125 0 1.125 0 0 Z " fill="#ECECEC" transform="translate(112,81)"/>
<path d="M0 0 C0.99 0.33 1.98 0.66 3 1 C2.09972412 2.03531726 1.17906965 3.05294165 0.25 4.0625 C-0.26046875 4.63097656 -0.7709375 5.19945312 -1.296875 5.78515625 C-3 7 -3 7 -5.203125 6.68359375 C-6.09257813 6.34521484 -6.09257813 6.34521484 -7 6 C-7 5.34 -7 4.68 -7 4 C-7.99 3.67 -8.98 3.34 -10 3 C-7 2 -7 2 -5 2.625 C-4.34 2.74875 -3.68 2.8725 -3 3 C-1.22809091 1.64555699 -1.22809091 1.64555699 0 0 Z " fill="#01B4F2" transform="translate(95,34)"/>
<path d="M0 0 C0.125 3.375 0.125 3.375 0 7 C-0.66 7.66 -1.32 8.32 -2 9 C-2 6.69 -2 4.38 -2 2 C-4.31 2.33 -6.62 2.66 -9 3 C-8.67 2.34 -8.34 1.68 -8 1 C-5.2303041 0.27113266 -2.87137415 0 0 0 Z " fill="#E3E3E3" transform="translate(92,67)"/>
<path d="M0 0 C1.65 0.99 3.3 1.98 5 3 C4.67 3.99 4.34 4.98 4 6 C2.35 5.67 0.7 5.34 -1 5 C-0.67 3.35 -0.34 1.7 0 0 Z " fill="#F2F2F2" transform="translate(83,83)"/>
<path d="M0 0 C-0.33 2.64 -0.66 5.28 -1 8 C-1.45375 7.360625 -1.9075 6.72125 -2.375 6.0625 C-3.83921726 3.90297594 -3.83921726 3.90297594 -6 3 C-6 2.01 -6 1.02 -6 0 C-3 -1 -3 -1 0 0 Z " fill="#EDEDED" transform="translate(100,79)"/>
<path d="M0 0 C1 3 1 3 1 6 C2.43750191 7.68798827 2.43750191 7.68798827 4 9 C3.67 9.66 3.34 10.32 3 11 C1.02 9.02 -0.96 7.04 -3 5 C-1.125 1.125 -1.125 1.125 0 0 Z " fill="#15AEF2" transform="translate(39,30)"/>
<path d="M0 0 C0.66 0.99 1.32 1.98 2 3 C1.67 3.99 1.34 4.98 1 6 C-0.32 5.67 -1.64 5.34 -3 5 C-3.33 3.68 -3.66 2.36 -4 1 C-2.68 0.67 -1.36 0.34 0 0 Z " fill="#F4F5F5" transform="translate(113,86)"/>
<path d="M0 0 C3.3 0.33 6.6 0.66 10 1 C10 1.66 10 2.32 10 3 C7.03 3 4.06 3 1 3 C0.67 2.01 0.34 1.02 0 0 Z " fill="#DADBDB" transform="translate(125,74)"/>
<path d="M0 0 C1.485 0.99 1.485 0.99 3 2 C3 2.66 3 3.32 3 4 C3.9590625 4.433125 3.9590625 4.433125 4.9375 4.875 C7 6 7 6 8 8 C4.21479387 7.45925627 2.40822445 5.92427254 0 3 C0 2.01 0 1.02 0 0 Z " fill="#0FABF0" transform="translate(45,98)"/>
<path d="M0 0 C1.65 0 3.3 0 5 0 C5 1.32 5 2.64 5 4 C3.35 4 1.7 4 0 4 C0 2.68 0 1.36 0 0 Z " fill="#EAEAEB" transform="translate(41,85)"/>
<path d="M0 0 C0.33 0 0.66 0 1 0 C1.33 2.97 1.66 5.94 2 9 C1.01 9 0.02 9 -1 9 C-1 8.34 -1 7.68 -1 7 C-1.66 7 -2.32 7 -3 7 C-3 6.34 -3 5.68 -3 5 C-2.34 5 -1.68 5 -1 5 C-0.67 3.35 -0.34 1.7 0 0 Z " fill="#BFBFBF" transform="translate(97,80)"/>
<path d="M0 0 C0.33 0 0.66 0 1 0 C1 1.98 1 3.96 1 6 C0.01 6.495 0.01 6.495 -1 7 C-3.03144641 6.06553465 -5.03533587 5.06775224 -7 4 C-3.98968256 3.06576355 -3.13349732 2.95550089 0 4 C0 2.68 0 1.36 0 0 Z " fill="#E8E8E8" transform="translate(91,51)"/>
<path d="M0 0 C1.65 0.33 3.3 0.66 5 1 C4.34 2.32 3.68 3.64 3 5 C1.68 5 0.36 5 -1 5 C-0.67 3.35 -0.34 1.7 0 0 Z " fill="#F7FAFA" transform="translate(126,80)"/>
<path d="M0 0 C1.98 0.495 1.98 0.495 4 1 C4 1.66 4 2.32 4 3 C3.34 3 2.68 3 2 3 C2 4.98 2 6.96 2 9 C1.01 8.67 0.02 8.34 -1 8 C-0.34 8 0.32 8 1 8 C1 6.35 1 4.7 1 3 C0.34 2.67 -0.32 2.34 -1 2 C-0.67 1.34 -0.34 0.68 0 0 Z " fill="#F9F9F9" transform="translate(101,80)"/>
<path d="M0 0 C1.32 1.32 2.64 2.64 4 4 C3.67 4.99 3.34 5.98 3 7 C1.68 6.34 0.36 5.68 -1 5 C-0.67 3.35 -0.34 1.7 0 0 Z " fill="#F1F1F1" transform="translate(120,83)"/>
<path d="M0 0 C1.32 0 2.64 0 4 0 C4 1.32 4 2.64 4 4 C2.68 4.33 1.36 4.66 0 5 C0.33 4.01 0.66 3.02 1 2 C0.34 1.67 -0.32 1.34 -1 1 C-0.67 0.67 -0.34 0.34 0 0 Z " fill="#F0F0F0" transform="translate(43,78)"/>
</svg>
